<?xml version="1.0" encoding="UTF-8"?>
<svg id="Calque_2" data-name="Calque 2" xmlns="http://www.w3.org/2000/svg" viewBox="0 0 78.53 208.92">
  <defs>
    <style>
      .cls-1 {
        letter-spacing: 0em;
      }

      .cls-2 {
        letter-spacing: 0em;
      }

      .cls-3 {
        letter-spacing: -.03em;
      }

      .cls-4 {
        fill: #78b735;
      }

      .cls-4, .cls-5 {
        stroke: #000;
        stroke-miterlimit: 10;
        stroke-width: .57px;
      }

      .cls-6 {
        fill: #a4a3a2;
        font-family: Bahnschrift, Bahnschrift;
        font-size: 8.5px;
        font-variation-settings: 'wght' 400, 'wdth' 100;
      }

      .cls-5 {
        fill: none;
      }
    </style>
  </defs>
  <g id="DIS_CENTRAL_3">
    <text class="cls-6" transform="translate(3.22 61.25)"><tspan class="cls-1" x="0" y="0">C</tspan><tspan class="cls-2" x="5.19" y="0">D </tspan><tspan class="cls-3" x="13.07" y="0">2</tspan><tspan class="cls-2" x="17.22" y="0">64J 63A 30mA</tspan></text>
    <polyline class="cls-5" points="68.48 25.2 68.48 18.11 72.56 25.2 72.56 18.11"/>
    <polyline class="cls-5" points="68.48 195.35 68.48 188.27 72.56 195.35 72.56 188.27"/>
    <rect class="cls-5" x="60.81" y="65.41" width="11.75" height="11.75" rx="2.84" ry="2.84"/>
    <line class="cls-5" x1="63.5" y1="69.16" x2="69.88" y2="69.16"/>
    <line class="cls-5" x1="66.69" y1="75.41" x2="66.69" y2="67.17"/>
    <g>
      <circle class="cls-5" cx="19.69" cy="18.11" r="7.09" transform="translate(-2.46 33.12) rotate(-76.72)"/>
      <polygon class="cls-5" points="23.82 16.93 23.82 19.3 20.87 19.3 20.87 24.02 18.51 24.02 18.51 19.3 15.56 19.3 15.56 16.93 18.51 16.93 18.51 12.21 20.87 12.21 20.87 16.93 23.82 16.93"/>
    </g>
    <g>
      <path class="cls-5" d="m65.12,18.11c0,3.92-3.17,7.09-7.08,7.09s-7.09-3.17-7.09-7.09,3.17-7.08,7.09-7.08,7.08,3.17,7.08,7.08Z"/>
      <polygon class="cls-5" points="62.17 16.93 62.17 19.3 59.22 19.3 59.22 24.02 56.85 24.02 56.85 19.3 53.91 19.3 53.91 16.93 56.85 16.93 56.85 12.22 59.22 12.22 59.22 16.93 62.17 16.93"/>
    </g>
    <g>
      <circle class="cls-5" cx="19.69" cy="191.8" r="7.09"/>
      <polygon class="cls-5" points="23.82 190.62 23.82 192.98 20.87 192.98 20.87 197.71 18.51 197.71 18.51 192.98 15.56 192.98 15.56 190.62 18.51 190.62 18.51 185.9 20.87 185.9 20.87 190.62 23.82 190.62"/>
    </g>
    <g>
      <circle class="cls-5" cx="58.05" cy="191.8" r="7.09"/>
      <polygon class="cls-5" points="62.18 190.62 62.18 192.98 59.23 192.98 59.23 197.71 56.87 197.71 56.87 192.98 53.92 192.98 53.92 190.62 56.87 190.62 56.87 185.9 59.23 185.9 59.23 190.62 62.18 190.62"/>
    </g>
    <path class="cls-5" d="m.28,52.92v29.52h77.96v-29.52H.28Zm34.68,17.59c-.36.36-.85.58-1.4.58H5.82c-1.09,0-1.98-.89-1.98-1.98,0-.55.22-1.04.58-1.4.36-.36.85-.58,1.4-.58h27.74c1.09,0,1.98.89,1.98,1.98,0,.55-.22,1.04-.58,1.4Zm37.6,3.81c0,1.57-1.27,2.84-2.84,2.84h-6.07c-1.57,0-2.84-1.27-2.84-2.84v-6.07c0-1.57,1.27-2.84,2.84-2.84h6.07c1.57,0,2.84,1.27,2.84,2.84v6.07Z"/>
    <rect class="cls-5" x="8.81" y="117.08" width="24.52" height="4.25"/>
    <rect class="cls-5" x="41.24" y="114.12" width="29.28" height="5.09"/>
    <path class="cls-5" d="m78.24,165.69v40.1c0,1.57-1.27,2.84-2.84,2.84H3.12c-1.57,0-2.84-1.27-2.84-2.84v-40.1h77.96Z"/>
    <path class="cls-4" d="m35.54,69.11c0,.55-.22,1.04-.58,1.4s-.85.58-1.4.58H5.82c-1.09,0-1.98-.89-1.98-1.98,0-.55.22-1.04.58-1.4.36-.36.85-.58,1.4-.58h27.74c1.09,0,1.98.89,1.98,1.98Z"/>
    <rect class="cls-5" x="60.81" y="65.41" width="11.75" height="11.75" rx="2.84" ry="2.84"/>
    <path class="cls-5" d="m75.4.28H3.12C1.55.28.28,1.55.28,3.11v45.56h77.96V3.11c0-1.56-1.27-2.83-2.84-2.83ZM19.69,25.2c-3.91,0-7.09-3.18-7.09-7.09s3.18-7.09,7.09-7.09,7.09,3.18,7.09,7.09-3.18,7.09-7.09,7.09Zm38.35,0c-3.92,0-7.09-3.17-7.09-7.09s3.17-7.08,7.09-7.08,7.08,3.17,7.08,7.08-3.17,7.09-7.08,7.09Z"/>
    <circle class="cls-5" cx="19.69" cy="18.11" r="7.09" transform="translate(-2.46 33.12) rotate(-76.72)"/>
    <path class="cls-5" d="m65.12,18.11c0,3.92-3.17,7.09-7.08,7.09s-7.09-3.17-7.09-7.09,3.17-7.08,7.09-7.08,7.08,3.17,7.08,7.08Z"/>
    <rect class="cls-5" x=".28" y="48.67" width="77.96" height="4.25"/>
    <rect class="cls-5" x=".28" y="165.69" width="77.96" height="9.93"/>
    <rect class="cls-5" x=".28" y="200.4" width="77.96" height="4.25"/>
    <rect class="cls-5" x="33.33" y="82.44" width="44.91" height="31.68"/>
    <rect class="cls-5" x=".28" y="82.44" width="8.53" height="31.68"/>
    <rect class="cls-5" x="8.81" y="82.44" width="24.52" height="16.48"/>
    <rect class="cls-5" x="8.81" y="110.98" width="24.52" height="6.1"/>
    <polygon class="cls-5" points="78.24 114.12 78.24 165.69 .28 165.69 .28 114.12 8.81 114.12 8.81 121.33 33.33 121.33 33.33 114.12 41.24 114.12 41.24 119.21 70.52 119.21 70.52 114.12 78.24 114.12"/>
    <rect class="cls-5" x="8.81" y="117.08" width="24.52" height="4.25"/>
    <rect class="cls-5" x="8.81" y="98.92" width="24.52" height="12.06"/>
    <rect class="cls-5" x="8.81" y="117.08" width="24.52" height="4.25"/>
    <rect class="cls-5" x="41.24" y="114.12" width="29.28" height="5.09"/>
  </g>
</svg>