<?xml version="1.0" encoding="UTF-8"?>
<svg id="Calque_2" data-name="Calque 2" xmlns="http://www.w3.org/2000/svg" viewBox="0 0 88.54 210.04">
  <defs>
    <style>
      .cls-1, .cls-2, .cls-3 {
        fill: #a4a3a2;
      }

      .cls-1, .cls-4 {
        stroke: #000;
        stroke-miterlimit: 10;
        stroke-width: .57px;
      }

      .cls-2 {
        font-family: MyriadConceptRoman-Regular, 'Myriad Variable Concept';
        font-size: 8.5px;
        font-variation-settings: 'wght' 400, 'wdth' 100;
      }

      .cls-4 {
        fill: none;
      }
    </style>
  </defs>
  <g id="DIS_CENTRAL_1">
    <g>
      <path class="cls-4" d="m49.27.28v48.9H10.29V5.91C10.29,2.8,12.81.28,15.92.28h33.35Z"/>
      <path class="cls-4" d="m88.25,5.91v43.27h-38.98V.28h33.35c3.11,0,5.63,2.52,5.63,5.63Z"/>
      <rect class="cls-4" x="10.29" y="49.2" width="77.96" height="4.26"/>
      <rect class="cls-4" x="10.29" y="53.53" width="38.98" height="28.34"/>
      <rect class="cls-4" x="49.27" y="53.53" width="38.98" height="28.34"/>
      <polygon class="cls-4" points="36.1 105.97 36.1 106.1 18.05 106.1 18.05 114.52 10.29 114.52 10.29 81.92 18.05 81.92 18.05 105.97 36.1 105.97"/>
      <rect class="cls-4" x="43.56" y="81.92" width="12.86" height="24.05"/>
      <rect class="cls-4" x="80.52" y="81.92" width="7.73" height="32.6"/>
      <rect class="cls-4" x="18.05" y="81.92" width="25.51" height="16.96"/>
      <rect class="cls-1" x="18.05" y="98.88" width="25.51" height="7.09"/>
      <rect class="cls-1" x="56.42" y="98.88" width="24.1" height="7.09"/>
      <rect class="cls-4" x="56.42" y="81.92" width="24.1" height="16.96"/>
      <rect class="cls-1" x="18.05" y="106.1" width="18.05" height="16.95"/>
      <rect class="cls-1" x="64.31" y="105.97" width="16.21" height="16.96"/>
      <polygon class="cls-4" points="49.27 125.86 49.27 166.42 10.29 166.42 10.29 114.69 18.05 114.69 18.05 123.05 36.1 123.05 36.1 125.86 49.27 125.86"/>
      <polygon class="cls-4" points="88.25 114.69 88.25 166.42 49.27 166.42 49.27 125.86 64.31 125.86 64.31 122.93 80.52 122.93 80.52 114.69 88.25 114.69"/>
      <rect class="cls-1" x="36.1" y="105.97" width="28.21" height="19.89"/>
      <rect class="cls-4" x="10.29" y="166.42" width="38.98" height="9.61"/>
      <rect class="cls-4" x="49.27" y="166.42" width="38.98" height="9.61"/>
      <rect class="cls-4" x="10.29" y="176.03" width="38.98" height="25.15"/>
      <rect class="cls-4" x="49.27" y="176.03" width="38.98" height="25.15"/>
      <rect class="cls-4" x="10.29" y="201.18" width="77.96" height="4.32"/>
      <path class="cls-4" d="m49.27,205.65v4.1H13.13c-1.57,0-2.84-1.27-2.84-2.83v-1.27h38.98Z"/>
      <path class="cls-4" d="m88.25,205.65v1.27c0,1.56-1.27,2.83-2.84,2.83h-36.14v-4.1h38.98Z"/>
      <path class="cls-1" d="m10.2,61.09v85.04H3.11c-1.56,0-2.83-1.27-2.83-2.84V63.92c0-1.57,1.27-2.83,2.83-2.83h7.09Z"/>
      <g>
        <circle class="cls-4" cx="29.78" cy="18.68" r="7.09"/>
        <polygon class="cls-4" points="33.92 17.49 33.92 19.86 30.97 19.86 30.97 24.59 28.6 24.59 28.6 19.86 25.65 19.86 25.65 17.49 28.6 17.49 28.6 12.78 30.97 12.78 30.97 17.49 33.92 17.49"/>
      </g>
      <g>
        <circle class="cls-4" cx="68.76" cy="18.68" r="7.09"/>
        <polygon class="cls-4" points="72.89 17.49 72.89 19.86 69.95 19.86 69.95 24.59 67.58 24.59 67.58 19.86 64.63 19.86 64.63 17.49 67.58 17.49 67.58 12.78 69.95 12.78 69.95 17.49 72.89 17.49"/>
      </g>
      <g>
        <circle class="cls-4" cx="29.78" cy="192.37" r="7.09"/>
        <polygon class="cls-4" points="33.92 191.19 33.92 193.55 30.97 193.55 30.97 198.28 28.6 198.28 28.6 193.55 25.65 193.55 25.65 191.19 28.6 191.19 28.6 186.47 30.97 186.47 30.97 191.19 33.92 191.19"/>
      </g>
      <g>
        <circle class="cls-4" cx="68.76" cy="192.37" r="7.09"/>
        <polygon class="cls-4" points="72.89 191.19 72.89 193.56 69.95 193.56 69.95 198.28 67.58 198.28 67.58 193.56 64.63 193.56 64.63 191.19 67.58 191.19 67.58 186.47 69.95 186.47 69.95 191.19 72.89 191.19"/>
      </g>
      <g>
        <path class="cls-3" d="m19.97,63.65c-.05-.9-.11-1.98-.1-2.78h-.03c-.22.75-.49,1.56-.81,2.44l-1.14,3.13h-.63l-1.05-3.07c-.31-.91-.56-1.74-.74-2.5h-.02c-.02.8-.06,1.88-.13,2.84l-.17,2.77h-.79l.45-6.45h1.06l1.1,3.12c.27.79.48,1.5.65,2.17h.03c.17-.65.39-1.36.68-2.17l1.15-3.12h1.06l.4,6.45h-.82l-.16-2.83Z"/>
        <path class="cls-3" d="m26.73,66.28c-.3.15-.92.31-1.7.31-1.82,0-3.18-1.15-3.18-3.27s1.36-3.38,3.37-3.38c.8,0,1.31.17,1.53.28l-.21.68c-.31-.15-.76-.27-1.3-.27-1.51,0-2.52.97-2.52,2.66,0,1.58.91,2.59,2.47,2.59.51,0,1.03-.1,1.37-.26l.17.66Z"/>
        <path class="cls-3" d="m29.5,66.49v-.51l.66-.64c1.59-1.51,2.31-2.32,2.31-3.26,0-.63-.3-1.22-1.23-1.22-.57,0-1.03.29-1.32.53l-.27-.59c.43-.36,1.04-.63,1.76-.63,1.34,0,1.9.92,1.9,1.8,0,1.16-.83,2.08-2.14,3.34l-.49.46v.02h2.79v.7h-3.97Z"/>
        <path class="cls-3" d="m37.01,66.49v-1.7h-2.89v-.55l2.77-3.97h.91v3.87h.87v.65h-.87v1.7h-.79Zm0-2.35v-2.08c0-.32.01-.65.03-.97h-.03c-.19.37-.35.63-.52.92l-1.52,2.12v.02s2.03,0,2.03,0Z"/>
        <path class="cls-3" d="m43.46,63.31c0,2.11-.79,3.28-2.16,3.28-1.21,0-2.04-1.14-2.06-3.19,0-2.09.9-3.24,2.17-3.24s2.06,1.17,2.06,3.15Zm-3.38.09c0,1.62.5,2.54,1.26,2.54.86,0,1.27-1,1.27-2.59s-.39-2.53-1.26-2.53c-.73,0-1.27.9-1.27,2.58Z"/>
        <path class="cls-3" d="m19.04,77.76c-.3.15-.92.31-1.7.31-1.82,0-3.18-1.15-3.18-3.27s1.36-3.38,3.37-3.38c.8,0,1.31.17,1.53.28l-.21.68c-.31-.15-.76-.27-1.3-.27-1.51,0-2.52.97-2.52,2.66,0,1.58.91,2.59,2.47,2.59.51,0,1.03-.1,1.37-.26l.17.66Z"/>
        <path class="cls-3" d="m22.39,77.97v-1.7h-2.89v-.55l2.77-3.97h.91v3.87h.87v.65h-.87v1.7h-.79Zm0-2.35v-2.08c0-.32.01-.65.03-.97h-.03c-.19.37-.35.63-.52.92l-1.52,2.12v.02s2.03,0,2.03,0Z"/>
        <path class="cls-3" d="m28.83,74.79c0,2.11-.79,3.28-2.16,3.28-1.21,0-2.04-1.14-2.06-3.19,0-2.09.9-3.24,2.17-3.24s2.06,1.17,2.06,3.15Zm-3.38.09c0,1.62.5,2.54,1.26,2.54.86,0,1.27-1,1.27-2.59s-.39-2.53-1.26-2.53c-.73,0-1.27.9-1.27,2.58Z"/>
      </g>
      <text class="cls-2" transform="translate(28.22 90.96)"><tspan x="0" y="0">OFF</tspan></text>
      <text class="cls-2" transform="translate(64.62 90.96)"><tspan x="0" y="0">OFF</tspan></text>
    </g>
  </g>
</svg>