<?xml version="1.0" encoding="UTF-8"?>
<svg id="Calque_2" data-name="Calque 2" xmlns="http://www.w3.org/2000/svg" viewBox="0 0 128.13 80.16">
  <defs>
    <style>
      .cls-1 {
        fill: #066baf;
      }

      .cls-1, .cls-2, .cls-3, .cls-4 {
        stroke: #000;
        stroke-miterlimit: 10;
        stroke-width: .57px;
      }

      .cls-2, .cls-5 {
        fill: #a4a3a2;
      }

      .cls-4 {
        fill: none;
      }
    </style>
  </defs>
  <g id="DISJ_HAUT_DROITE">
    <g>
      <polygon class="cls-4" points="127.84 21.08 127.84 31.21 125.91 31.21 125.91 34.3 2.23 34.3 2.23 31.21 .28 31.21 .28 21.08 12.7 .28 115.43 .28 127.84 21.08"/>
      <rect class="cls-4" x=".28" y="34.3" width="127.56" height="28.35"/>
      <g>
        <g>
          <rect class="cls-5" x="98.53" y="27.21" width="17.01" height="7.09"/>
          <rect class="cls-4" x="98.53" y="27.21" width="17.01" height="7.09"/>
        </g>
        <g>
          <rect class="cls-5" x="57.43" y="27.21" width="17.01" height="7.09"/>
          <rect class="cls-4" x="57.43" y="27.21" width="17.01" height="7.09"/>
        </g>
        <g>
          <rect class="cls-5" x="16.33" y="27.21" width="17.01" height="7.09"/>
          <rect class="cls-4" x="16.33" y="27.21" width="17.01" height="7.09"/>
        </g>
      </g>
      <rect class="cls-3" x=".28" y="62.68" width="127.56" height="12.76"/>
      <g>
        <path class="cls-2" d="m39.16,13.14v8.47c-.89-1.18-1.41-2.64-1.41-4.23s.52-3.05,1.41-4.24Z"/>
        <path class="cls-2" d="m49.08,11.71h-8.5c1.18-.89,2.66-1.42,4.25-1.42s3.07.52,4.25,1.42Z"/>
        <path class="cls-2" d="m51.92,17.38c0,1.59-.52,3.06-1.42,4.24v-8.49c.9,1.19,1.42,2.66,1.42,4.25Z"/>
        <path class="cls-2" d="m49.07,23.05c-1.18.89-2.65,1.41-4.24,1.41s-3.05-.52-4.23-1.41h8.47Z"/>
        <path class="cls-2" d="m50.5,13.13v8.49c-.4.54-.88,1.03-1.43,1.43h-8.47c-.55-.4-1.04-.89-1.44-1.44v-8.47c.4-.54.88-1.02,1.42-1.43h8.5c.54.4,1.02.88,1.42,1.42Z"/>
      </g>
      <g>
        <path class="cls-2" d="m80.9,13.14v8.47c-.89-1.18-1.41-2.64-1.41-4.23s.52-3.05,1.41-4.24Z"/>
        <path class="cls-2" d="m90.82,11.71h-8.5c1.18-.89,2.66-1.42,4.25-1.42s3.07.52,4.25,1.42Z"/>
        <path class="cls-2" d="m93.66,17.38c0,1.59-.52,3.06-1.42,4.24v-8.49c.9,1.19,1.42,2.66,1.42,4.25Z"/>
        <path class="cls-2" d="m90.81,23.05c-1.18.89-2.65,1.41-4.24,1.41s-3.05-.52-4.23-1.41h8.47Z"/>
        <path class="cls-2" d="m92.24,13.13v8.49c-.4.54-.88,1.03-1.43,1.43h-8.47c-.55-.4-1.04-.89-1.44-1.44v-8.47c.4-.54.88-1.02,1.42-1.43h8.5c.54.4,1.02.88,1.42,1.42Z"/>
      </g>
      <g>
        <rect class="cls-4" x="112.61" y="38.93" width="5.67" height="14.17" rx="2.83" ry="2.83"/>
        <rect class="cls-4" x="98.44" y="38.93" width="5.67" height="14.17" rx="2.83" ry="2.83"/>
        <rect class="cls-4" x="84.27" y="38.93" width="5.67" height="14.17" rx="2.83" ry="2.83"/>
        <rect class="cls-4" x="70.09" y="38.93" width="5.67" height="14.17" rx="2.83" ry="2.83"/>
        <rect class="cls-4" x="55.92" y="38.93" width="5.67" height="14.17" rx="2.83" ry="2.83"/>
        <rect class="cls-4" x="41.75" y="38.93" width="5.67" height="14.17" rx="2.83" ry="2.83"/>
        <rect class="cls-4" x="27.57" y="38.93" width="5.67" height="14.17" rx="2.83" ry="2.83"/>
        <rect class="cls-4" x="13.4" y="38.93" width="5.67" height="14.17" rx="2.83" ry="2.83"/>
      </g>
      <g>
        <rect class="cls-1" x="106.62" y="62.68" width="11.34" height="17.01"/>
        <rect class="cls-1" x="92.88" y="62.68" width="11.34" height="17.01"/>
        <rect class="cls-1" x="79.14" y="62.68" width="11.34" height="17.01"/>
        <rect class="cls-1" x="65.4" y="62.68" width="11.34" height="17.01"/>
        <rect class="cls-1" x="51.66" y="62.68" width="11.34" height="17.01"/>
        <rect class="cls-1" x="37.91" y="62.68" width="11.34" height="17.01"/>
        <rect class="cls-1" x="24.17" y="62.68" width="11.34" height="17.01"/>
        <rect class="cls-1" x="10.43" y="62.68" width="11.34" height="17.01"/>
        <path class="cls-1" d="m2.36,62.87h5.67v17.01h-3.13c-1.4,0-2.54-1.14-2.54-2.54v-14.47h0Z"/>
        <path class="cls-1" d="m122.9,62.87h3.13v17.01h-5.67v-14.47c0-1.4,1.14-2.54,2.54-2.54Z" transform="translate(246.39 142.74) rotate(-180)"/>
      </g>
    </g>
  </g>
</svg>