<?xml version="1.0" encoding="UTF-8"?>
<svg id="Calque_2" data-name="Calque 2" xmlns="http://www.w3.org/2000/svg" viewBox="0 0 87.74 210.04">
  <defs>
    <style>
      .cls-1 {
        fill: #78b735;
      }

      .cls-1, .cls-2, .cls-3, .cls-4 {
        stroke-miterlimit: 10;
      }

      .cls-1, .cls-2, .cls-4 {
        stroke-width: .57px;
      }

      .cls-1, .cls-3, .cls-4 {
        stroke: #000;
      }

      .cls-2 {
        stroke: #1d1d1b;
      }

      .cls-2, .cls-3, .cls-4 {
        fill: none;
      }

      .cls-5 {
        fill: #a4a3a2;
      }

      .cls-3 {
        stroke-width: .57px;
      }
    </style>
  </defs>
  <g id="DIS_CENTRAL_2">
    <g>
      <path class="cls-4" d="m87.45,5.93v43.25H.28V5.93C.28,2.81,2.81.28,5.93.28h75.87c3.12,0,5.65,2.53,5.65,5.65Z"/>
      <path class="cls-4" d="m87.45,163.52v40.58c0,3.12-2.53,5.65-5.65,5.65H5.93c-3.12,0-5.65-2.53-5.65-5.65v-40.58h87.17Z"/>
      <rect class="cls-4" x=".28" y="53.53" width="8.38" height="109.99"/>
      <rect class="cls-3" x="79.52" y="53.53" width="7.93" height="109.99"/>
      <rect class="cls-4" x=".28" y="49.18" width="87.17" height="4.35"/>
      <rect class="cls-3" x="8.66" y="53.53" width="70.86" height="109.99"/>
      <g>
        <circle class="cls-2" cx="22.19" cy="18.68" r="7.09"/>
        <polygon class="cls-4" points="26.32 17.49 26.32 19.86 23.37 19.86 23.37 24.59 21.01 24.59 21.01 19.86 18.06 19.86 18.06 17.49 21.01 17.49 21.01 12.78 23.37 12.78 23.37 17.49 26.32 17.49"/>
      </g>
      <g>
        <circle class="cls-2" cx="22.19" cy="192.38" r="7.09"/>
        <polygon class="cls-4" points="26.32 191.19 26.32 193.56 23.37 193.56 23.37 198.28 21.01 198.28 21.01 193.56 18.06 193.56 18.06 191.19 21.01 191.19 21.01 186.48 23.37 186.48 23.37 191.19 26.32 191.19"/>
      </g>
      <g>
        <circle class="cls-2" cx="66.79" cy="18.68" r="7.09"/>
        <polygon class="cls-4" points="70.92 17.5 70.92 19.86 67.97 19.86 67.97 24.59 65.6 24.59 65.6 19.86 62.65 19.86 62.65 17.5 65.6 17.5 65.6 12.78 67.97 12.78 67.97 17.5 70.92 17.5"/>
      </g>
      <polyline class="cls-4" points="8.66 25.77 8.66 31.78 12.6 31.78"/>
      <polyline class="cls-4" points="75.07 31.78 75.07 25.77 79.16 31.78 79.16 25.77"/>
      <line class="cls-4" x1="22.19" y1="30.5" x2="22.19" y2="44.46"/>
      <line class="cls-4" x1="66.78" y1="30.5" x2="66.78" y2="44.46"/>
      <path class="cls-4" d="m2.9,59.27v3.23c0,1.03.84,1.87,1.87,1.87h0c1.03,0,1.87-.84,1.87-1.87v-3.23"/>
      <line class="cls-4" x1="4.77" y1="89.15" x2="4.77" y2="94.67"/>
      <path class="cls-4" d="m2.9,107.61v-3.58h1.95c.99,0,1.79.8,1.79,1.79h0c0,.99-.8,1.79-1.79,1.79h-1.95v1.95"/>
      <polyline class="cls-3" points="9.16 6.33 10.63 4.89 10.63 11.59 8.66 11.59 12.6 11.59"/>
      <path class="cls-3" d="m75.54,7.18l.75-.93c.31-.38.77-.6,1.26-.6h0c.89,0,1.61.72,1.61,1.61v.06c0,.43-.17.84-.47,1.14l-2.89,2.89h3.36"/>
      <polyline class="cls-3" points="22.19 165.06 22.19 173.23 23.92 176.03 22.19 177.82 22.19 180.63"/>
      <polyline class="cls-4" points="8.66 177.06 8.66 182.42 12.6 182.42"/>
      <path class="cls-4" d="m8.66,196.72h3.94l-2.36,2.36h1.65c.39,0,.71.32.71.71v1.84c0,.39-.32.71-.71.71h-2.66c-.31,0-.57-.25-.57-.57v-1.09"/>
      <rect class="cls-4" x="15.14" y="120.22" width="21.26" height="12.05" rx="2.83" ry="2.83"/>
      <rect class="cls-4" x="50.37" y="120.22" width="21.26" height="12.05" rx="2.83" ry="2.83"/>
      <rect class="cls-4" x="50.37" y="140.56" width="21.26" height="12.05" rx="2.83" ry="2.83"/>
      <rect class="cls-4" x="15.14" y="140.56" width="21.26" height="12.05" rx="2.83" ry="2.83"/>
      <line class="cls-4" x1="20.79" y1="126.25" x2="30.75" y2="126.25"/>
      <line class="cls-4" x1="57.77" y1="126.25" x2="64.24" y2="126.25"/>
      <line class="cls-4" x1="61" y1="123.23" x2="61" y2="129.27"/>
      <line class="cls-4" x1="22.26" y1="144.8" x2="29.27" y2="144.8"/>
      <line class="cls-4" x1="22.26" y1="146.58" x2="29.27" y2="146.58"/>
      <line class="cls-4" x1="22.26" y1="148.27" x2="29.27" y2="148.27"/>
      <line class="cls-4" x1="61" y1="149.23" x2="61" y2="145.23"/>
      <line class="cls-4" x1="61" y1="144.2" x2="61" y2="143.18"/>
      <polyline class="cls-4" points="16.9 156.89 18.94 161.1 21.28 156.89 23.06 161.1 24.82 156.89"/>
      <polyline class="cls-4" points="29.27 160.78 26.99 160.78 26.99 156.89 31.24 156.89 31.24 158.99 26.99 158.99"/>
      <line class="cls-4" x1="33.82" y1="161.1" x2="33.82" y2="155.29"/>
      <line class="cls-4" x1="36.4" y1="161.1" x2="36.4" y2="156.89"/>
      <polyline class="cls-4" points="38.54 157.2 37.14 157.2 36.4 158.99"/>
      <rect class="cls-4" x="40.33" y="157.2" width="4.21" height="3.57"/>
      <line class="cls-4" x1="47.22" y1="155.29" x2="47.22" y2="160.78"/>
      <polyline class="cls-4" points="51.82 156.89 47.22 158.83 50.92 160.78"/>
      <polyline class="cls-4" points="55.14 156.18 56.99 160.78 58.71 156.18"/>
      <line class="cls-4" x1="61.03" y1="156.18" x2="61.03" y2="161.1"/>
      <rect class="cls-1" x="41.73" y="133.84" width="4.66" height="3.57" rx=".57" ry=".57"/>
      <polyline class="cls-4" points="40.84 130.97 43.87 128.1 46.39 131.23"/>
      <g>
        <g>
          <path class="cls-5" d="m18.19,81.59l-1.29-1.42v-5.67l1.29-1.41,1.3,1.41v5.67l-1.3,1.42Zm7.77-19.86h-5.17l-1.3-1.41,1.3-1.42h5.17l1.3,1.42-1.3,1.41Zm0,11.35h-5.17l-1.3-1.43,1.3-1.41h5.17l1.3,1.41-1.3,1.43Zm0,11.35h-5.17l-1.3-1.43,1.3-1.41h5.17l1.3,1.41-1.3,1.43Zm2.6-14.19l-1.3-1.41v-5.67l1.3-1.43,1.28,1.43v5.67l-1.28,1.41Z"/>
          <path class="cls-5" d="m38.92,81.59l-1.29-1.42v-5.67l1.29-1.41,1.3,1.41v5.67l-1.3,1.42Zm7.77-19.86h-5.17l-1.3-1.41,1.3-1.42h5.17l1.3,1.42-1.3,1.41Zm0,11.35h-5.17l-1.3-1.43,1.3-1.41h5.17l1.3,1.41-1.3,1.43Zm0,11.35h-5.17l-1.3-1.43,1.3-1.41h5.17l1.3,1.41-1.3,1.43Zm2.6-14.19l-1.3-1.41v-5.67l1.3-1.43,1.28,1.43v5.67l-1.28,1.41Z"/>
          <path class="cls-5" d="m59.64,70.24l-1.29-1.41v-5.67l1.29-1.43,1.3,1.43v5.67l-1.3,1.41Zm0,11.35l-1.29-1.42v-5.67l1.29-1.41,1.3,1.41v5.67l-1.3,1.42Zm7.77-19.86h-5.17l-1.3-1.41,1.3-1.42h5.17l1.3,1.42-1.3,1.41Zm0,22.7h-5.17l-1.3-1.43,1.3-1.41h5.17l1.3,1.41-1.3,1.43Zm2.6-14.19l-1.3-1.41v-5.67l1.3-1.43,1.28,1.43v5.67l-1.28,1.41Zm0,11.35l-1.3-1.42v-5.67l1.3-1.41,1.28,1.41v5.67l-1.28,1.42Z"/>
        </g>
        <g>
          <path class="cls-5" d="m37.63,99.49l-1.41-1.41v-5.68l1.41-1.42,1.42,1.42v5.68l-1.42,1.41Zm0,11.35l-1.41-1.42v-5.67l1.41-1.41,1.42,1.41v5.67l-1.42,1.42Zm8.51-19.86h-5.66l-1.43-1.41,1.43-1.43h5.66l1.43,1.43-1.43,1.41Zm0,22.7h-5.66l-1.43-1.43,1.43-1.41h5.66l1.43,1.41-1.43,1.43Zm2.85-14.19l-1.43-1.41v-5.68l1.43-1.42,1.4,1.42v5.68l-1.4,1.41Zm0,11.35l-1.43-1.42v-5.67l1.43-1.41,1.4,1.41v5.67l-1.4,1.42Z"/>
          <path class="cls-5" d="m60.33,110.84l-1.41-1.42v-5.67l1.41-1.41,1.43,1.41v5.67l-1.43,1.42Zm8.51-19.86h-5.66l-1.43-1.41,1.43-1.43h5.66l1.42,1.43-1.42,1.41Zm0,11.35h-5.66l-1.43-1.43,1.43-1.41h5.66l1.42,1.41-1.42,1.43Zm0,11.35h-5.66l-1.43-1.43,1.43-1.41h5.66l1.42,1.41-1.42,1.43Zm2.85-14.19l-1.43-1.41v-5.68l1.43-1.42,1.4,1.42v5.68l-1.4,1.41Z"/>
        </g>
        <rect class="cls-5" x="52.33" y="110.13" width="2.83" height="2.83"/>
      </g>
    </g>
  </g>
</svg>