<?xml version="1.0" encoding="UTF-8"?>
<svg id="Calque_2" data-name="Calque 2" xmlns="http://www.w3.org/2000/svg" viewBox="0 0 50.02 208.91">
  <defs>
    <style>
      .cls-1 {
        font-size: 7.09px;
      }

      .cls-1, .cls-2, .cls-3, .cls-4 {
        fill: #a4a3a2;
      }

      .cls-1, .cls-3, .cls-4 {
        font-family: Bahnschrift, Bahnschrift;
        font-variation-settings: 'wght' 400, 'wdth' 100;
      }

      .cls-5 {
        letter-spacing: 0em;
      }

      .cls-2, .cls-6 {
        stroke: #000;
        stroke-miterlimit: 10;
        stroke-width: .57px;
      }

      .cls-3 {
        font-size: 8.5px;
        letter-spacing: 0em;
      }

      .cls-7 {
        letter-spacing: 0em;
      }

      .cls-4 {
        font-size: 11.34px;
        letter-spacing: 0em;
      }

      .cls-8 {
        letter-spacing: .01em;
      }

      .cls-6 {
        fill: none;
      }
    </style>
  </defs>
  <g id="DIS_CENTRAL_4">
    <rect class="cls-6" x=".28" y="52.49" width="38.97" height="30.23"/>
    <path class="cls-6" d="m39.25,5.95v42.29H.28V5.95C.28,2.81,2.82.28,5.95.28h27.63c3.13,0,5.67,2.53,5.67,5.67Z"/>
    <rect class="cls-6" x=".28" y="82.72" width="7.92" height="31.91"/>
    <rect class="cls-6" x="8.2" y="82.72" width="24.51" height="16.89"/>
    <rect class="cls-6" x="32.71" y="82.72" width="6.54" height="31.91"/>
    <rect class="cls-2" x="8.2" y="110.84" width="24.51" height="6.1"/>
    <rect class="cls-2" x="8.2" y="99.61" width="24.51" height="11.23"/>
    <polygon class="cls-6" points="39.25 114.63 39.25 165.97 .28 165.97 .28 114.63 8.2 114.63 8.2 122.94 32.71 122.94 32.71 114.63 39.25 114.63"/>
    <rect class="cls-6" x=".28" y="176.76" width="38.97" height="24.13"/>
    <rect class="cls-6" x=".28" y="165.97" width="38.97" height="10.79"/>
    <path class="cls-6" d="m39.25,200.89v2.06c0,.81-.17,1.58-.47,2.28H.76c-.31-.7-.48-1.47-.48-2.28v-2.06h38.97Z"/>
    <path class="cls-6" d="m38.78,205.23c-.88,2-2.88,3.39-5.2,3.39H5.95c-2.32,0-4.32-1.39-5.19-3.39h38.02Z"/>
    <rect class="cls-6" x=".28" y="48.24" width="38.97" height="4.25"/>
    <rect class="cls-2" x="8.2" y="116.94" width="24.51" height="6"/>
    <path class="cls-2" d="m49.73,62.85v79.25c0,1.56-1.27,2.83-2.83,2.83h-7.65V60.02h7.65c1.56,0,2.83,1.27,2.83,2.83Z"/>
    <g>
      <circle class="cls-6" cx="19.46" cy="18.4" r="7.09"/>
      <polygon class="cls-6" points="23.59 17.22 23.59 19.58 20.64 19.58 20.64 24.31 18.27 24.31 18.27 19.58 15.32 19.58 15.32 17.22 18.27 17.22 18.27 12.5 20.64 12.5 20.64 17.22 23.59 17.22"/>
    </g>
    <g>
      <circle class="cls-6" cx="19.46" cy="191.08" r="7.09"/>
      <polygon class="cls-6" points="23.59 189.9 23.59 192.26 20.64 192.26 20.64 196.99 18.27 196.99 18.27 192.26 15.32 192.26 15.32 189.9 18.27 189.9 18.27 185.18 20.64 185.18 20.64 189.9 23.59 189.9"/>
    </g>
    <text class="cls-4" transform="translate(2.39 64.08)"><tspan x="0" y="0">MC 125</tspan></text>
    <text class="cls-3" transform="translate(3.39 74.69)"><tspan x="0" y="0">C 25</tspan></text>
    <text class="cls-1" transform="translate(17.75 90.11)"><tspan class="cls-5" x="0" y="0">O</tspan><tspan class="cls-8" x="4.51" y="0">F</tspan><tspan class="cls-7" x="8.55" y="0">F</tspan></text>
  </g>
</svg>